<svg id="Layer_1" data-name="Layer 1" xmlns="http://www.w3.org/2000/svg" viewBox="0 0 345.97 84.78"><title>Untitled-1</title><path d="M149.15,140.91l18.91.49q-1.87,14.68-10.17,22.69t-21.65,8q-13.58,0-22.72-9.1a30.55,30.55,0,0,1-9.14-22.58,30.88,30.88,0,0,1,9.32-22.83,31.36,31.36,0,0,1,23-9.26q13.42,0,22.42,9.08,6.24,6.27,8.82,17.49l-19.36,1.29q-3.25-10-12.33-10a12.54,12.54,0,0,0-9.55,4,14.31,14.31,0,0,0-3.76,10.19,13.71,13.71,0,0,0,3.7,9.85,13.51,13.51,0,0,0,18.49.47Q148.52,147.32,149.15,140.91Z" transform="translate(-104.38 -106.42)"/><path d="M192,109.84v60.75H175.36V109.84Z" transform="translate(-104.38 -106.42)"/><path d="M222.8,125.29A22,22,0,0,1,239,132.07a23,23,0,0,1-.09,32.65,23.48,23.48,0,0,1-33,0,23,23,0,0,1,0-32.75A23.31,23.31,0,0,1,222.8,125.29Zm-.45,16.42a6.08,6.08,0,0,0-4.54,1.93,6.9,6.9,0,0,0,0,9.46,6,6,0,0,0,4.51,2,6.13,6.13,0,0,0,4.57-2,6.89,6.89,0,0,0,0-9.46A6.14,6.14,0,0,0,222.35,141.71Z" transform="translate(-104.38 -106.42)"/><path d="M267.48,109.84v17H275v17.58h-7.48c0,3.53.56,6,1.67,7.3s3.15,2,6.12,2v17.49c-.86,0-1.5,0-1.92,0a22.6,22.6,0,0,1-10.65-2.63,21.57,21.57,0,0,1-8-7.12q-3.82-5.74-3.82-15.22V109.84Z" transform="translate(-104.38 -106.42)"/><path d="M299.79,109.84V128.4a14.33,14.33,0,0,1,8.46-3.07A12.38,12.38,0,0,1,318.41,130q3.76,4.64,3.76,12.5v28.13H305.53V147.14a8.19,8.19,0,0,0-.6-3.83,2.53,2.53,0,0,0-2.34-1q-2.8,0-2.8,4.14v24.12H283.15V109.84Z" transform="translate(-104.38 -106.42)"/><path d="M348.52,126.22v44.37H331.88V126.22Zm-8.28-19.8a8.11,8.11,0,0,1,5.85,2.38,7.85,7.85,0,0,1,.14,11.32,9.15,9.15,0,0,1-12,0,7.86,7.86,0,0,1,.13-11.32A8.14,8.14,0,0,1,340.24,106.42Z" transform="translate(-104.38 -106.42)"/><path d="M397.87,170.59H381.23V145.54c0-2.56-1.05-3.83-3.16-3.83S375,143,375,145.54v25.05H358.31V145.85a20.21,20.21,0,0,1,5.74-14.62,20,20,0,0,1,29.33,1q4.5,5.38,4.49,15Z" transform="translate(-104.38 -106.42)"/><path d="M431.25,152.3v15.26a19.61,19.61,0,0,1-6.9,1.34,17.79,17.79,0,0,1-13.64-6.1,21.26,21.26,0,0,1-5.58-14.91,21.55,21.55,0,0,1,6.72-16.06,22.76,22.76,0,0,1,16.51-6.54,24.46,24.46,0,0,1,10,2.09A18.56,18.56,0,0,1,445.8,133q4.54,5.82,4.54,16.91v14.59q0,11.89-6.74,19.3T426,191.2a27.92,27.92,0,0,1-8.32-1.65V174.42a13.66,13.66,0,0,0,6.59,1.78,8.5,8.5,0,0,0,6.94-3q2.44-3,2.45-8.48V148.07q0-7-5.65-7a5.72,5.72,0,0,0-4.21,1.85,5.92,5.92,0,0,0-1.8,4.25,5.71,5.71,0,0,0,1.71,4.23A5.81,5.81,0,0,0,428,153.1,7.06,7.06,0,0,0,431.25,152.3Z" transform="translate(-104.38 -106.42)"/></svg>