<?xml version="1.0" encoding="utf-8"?>
<!-- Generator: Adobe Illustrator 23.0.3, SVG Export Plug-In . SVG Version: 6.00 Build 0)  -->
<svg version="1.1" id="Layer_1" xmlns="http://www.w3.org/2000/svg" xmlns:xlink="http://www.w3.org/1999/xlink" x="0px" y="0px"
	 viewBox="0 0 346 84.8" style="enable-background:new 0 0 346 84.8;" xml:space="preserve">
<style type="text/css">
	.st0{fill:#D3D3D3;}
</style>
<title>Untitled-1</title>
<path class="st0" d="M44.8,34.5L63.7,35c-1.2,9.8-4.6,17.4-10.2,22.7c-5.5,5.3-12.8,8-21.6,8c-9.1,0-16.6-3-22.7-9.1
	C3.1,50.6-0.2,42.5,0,34c-0.2-8.6,3.2-16.8,9.3-22.8c6.1-6.1,14.4-9.5,23-9.3c8.9,0,16.4,3,22.4,9.1c4.2,4.2,7.1,10,8.8,17.5
	l-19.4,1.3c-2.2-6.7-6.3-10-12.3-10c-3.6-0.1-7.1,1.4-9.6,4c-2.5,2.8-3.9,6.4-3.8,10.2c-0.1,3.6,1.2,7.2,3.7,9.9
	c5.1,5,13.2,5.2,18.5,0.5C43,42,44.3,38.8,44.8,34.5z"/>
<path class="st0" d="M87.6,3.4v60.8H71V3.4H87.6z"/>
<path class="st0" d="M118.4,18.9c6.1-0.1,12,2.4,16.2,6.8c9,9,9,23.5,0,32.5c0,0-0.1,0.1-0.1,0.1c-9.1,9-23.9,9-33,0
	c-9-8.9-9.1-23.5-0.2-32.5c0.1-0.1,0.1-0.1,0.2-0.2C106,21.1,112.1,18.7,118.4,18.9z M118,35.3c-1.7,0-3.4,0.7-4.5,1.9
	c-2.5,2.7-2.5,6.8,0,9.5c1.1,1.3,2.8,2,4.5,2c1.7,0,3.4-0.7,4.6-2c2.5-2.7,2.5-6.8,0-9.5C121.3,36,119.7,35.3,118,35.3z"/>
<path class="st0" d="M163.1,3.4v17h7.5V38h-7.5c0,3.5,0.6,6,1.7,7.3s3.1,2,6.1,2v17.5c-0.9,0-1.5,0-1.9,0c-3.7,0-7.4-0.9-10.6-2.6
	c-3.2-1.7-6-4.1-8-7.1c-2.5-3.8-3.8-8.9-3.8-15.2V3.4H163.1z"/>
<path class="st0" d="M195.4,3.4V22c2.4-1.9,5.4-3,8.5-3.1c3.9-0.1,7.7,1.6,10.2,4.7c2.5,3.1,3.8,7.3,3.8,12.5v28.1h-16.6V40.7
	c0.1-1.3-0.1-2.6-0.6-3.8c-0.5-0.7-1.4-1.1-2.3-1c-1.9,0-2.8,1.4-2.8,4.1v24.1h-16.6V3.4H195.4z"/>
<path class="st0" d="M244.1,19.8v44.4h-16.6V19.8H244.1z M235.9,0c2.2,0,4.3,0.8,5.9,2.4c3.2,3,3.3,7.9,0.4,11.1
	c-0.1,0.1-0.1,0.2-0.2,0.2c-3.4,3-8.6,3-12,0c-3.1-3-3.1-8-0.1-11.1c0.1-0.1,0.1-0.1,0.2-0.2C231.5,0.8,233.7,0,235.9,0z"/>
<path class="st0" d="M293.5,64.2h-16.6V39.1c0-2.6-1-3.8-3.2-3.8s-3.1,1.3-3.1,3.8v25.1h-16.7V39.4c-0.1-5.4,1.9-10.7,5.7-14.6
	c7.8-7.8,20.4-7.9,28.3-0.1c0.4,0.4,0.7,0.7,1,1.1c3,3.6,4.5,8.6,4.5,15L293.5,64.2z"/>
<path class="st0" d="M326.9,45.9v15.3c-2.2,0.9-4.5,1.3-6.9,1.3c-5.2,0.1-10.2-2.2-13.6-6.1c-3.7-4.1-5.7-9.4-5.6-14.9
	c-0.1-6.1,2.3-11.9,6.7-16.1c4.4-4.3,10.3-6.7,16.5-6.5c3.4,0,6.9,0.7,10,2.1c2.9,1.2,5.5,3.1,7.4,5.6c3,3.9,4.5,9.5,4.5,16.9v14.6
	c0,7.9-2.2,14.4-6.7,19.3c-4.5,4.9-10.4,7.4-17.6,7.4c-2.8-0.1-5.6-0.7-8.3-1.6V68c2,1.1,4.3,1.8,6.6,1.8c2.7,0.1,5.2-1,6.9-3
	c1.6-2,2.4-4.8,2.5-8.5V41.7c0-4.7-1.9-7-5.6-7c-1.6,0-3.1,0.7-4.2,1.9c-1.2,1.1-1.8,2.6-1.8,4.3c0,1.6,0.6,3.1,1.7,4.2
	c1.1,1.1,2.7,1.7,4.3,1.7C324.8,46.7,325.9,46.4,326.9,45.9z"/>
</svg>
